# xmcd CD database file
#
# Track frame offsets:
#	150
#	8573
#	30795
#	49295
#	69088
#	84805
#	88195
#	108663
#	125105
#	151505
#	173235
#	190643
#	215433
#	237843
#	257673
#	277588
#	296225
#	315283
#	332780
#
# Disc length: 4742 seconds
#
# Revision: 0
# Processed by: cddbd v1.4PL0 Copyright (c) Steve Scherf et al.
# Submitted via: CD2WAV32(EN) R3.19
#
DISCID=ef128413
DTITLE=LL COOL J - G.O.A.T. FEATURING JAMES T. SMITH THE GREATEST OF ALL TIM
DTITLE=E
DYEAR=1900
DGENRE=
TTITLE0=Intro
TTITLE1=Imagine That
TTITLE2=Back Where I Belong (feat. Ja Rule)
TTITLE3=LL Cool J (feat.Kandice Love)
TTITLE4=Take It Off
TTITLE5=Skit
TTITLE6=Fuhgidabowdit (faet. DMX, Method Man and Redman)
TTITLE7=Farmaers (feat.Tikki Diamondz)
TTITLE8=This is Us (feat. Cari Thomas)
TTITLE9=Can't Think
TTITLE10=Hello (feat. Amil)
TTITLE11=You and Me (feat. Kelly Price)
TTITLE12=Homicide
TTITLE13=U Can't F**k with Me (feat. Snoop Dogg, Xzibit and Jayo Felony)
TTITLE14=Queens Is (feat. prodigy)
TTITLE15=The G.O.A.T.
TTITLE16=Fo Sho
TTITLE17=Mirror Mirror
TTITLE18=Queens Is (Remix feat. DABO)
EXTD=
EXTT0=
EXTT1=
EXTT2=
EXTT3=
EXTT4=
EXTT5=
EXTT6=
EXTT7=
EXTT8=
EXTT9=
EXTT10=
EXTT11=
EXTT12=
EXTT13=
EXTT14=
EXTT15=
EXTT16=
EXTT17=
EXTT18=
PLAYORDER=
